<svg width="781" height="183" viewBox="0 0 781 183" fill="none" xmlns="http://www.w3.org/2000/svg">
<path d="M478 73.793H607V54.793H625L681.145 0.792969L738 54.793H738.5L781 171.793H18.0005L69.9995 54.793H478V73.793Z" fill="#00529F"/>
<mask id="path-2-outside-1_2722_11217" maskUnits="userSpaceOnUse" x="194" y="59.793" width="563" height="103" fill="black">
<rect fill="white" x="194" y="59.793" width="563" height="103"/>
<path d="M201.604 68.4805H231.779C238.264 68.4805 243.791 69.457 248.361 71.4102C252.932 73.3633 256.428 76.2539 258.85 80.082C261.311 83.8711 262.541 88.5586 262.541 94.1445C262.541 98.4023 261.76 102.152 260.197 105.395C258.635 108.637 256.428 111.371 253.576 113.598C250.725 115.785 247.326 117.484 243.381 118.695L238.928 120.863H211.799L211.682 109.203H232.014C235.529 109.203 238.459 108.578 240.803 107.328C243.147 106.078 244.904 104.379 246.076 102.23C247.287 100.043 247.893 97.582 247.893 94.8477C247.893 91.8789 247.307 89.3008 246.135 87.1133C245.002 84.8867 243.244 83.1875 240.861 82.0156C238.479 80.8047 235.451 80.1992 231.779 80.1992H216.311V153.793H201.604V68.4805ZM250.295 153.793L230.256 115.473L245.666 115.414L265.998 153.031V153.793H250.295ZM402.625 134.633L419.617 68.4805H428.523L427.527 85.5312L409.363 153.793H400.105L402.625 134.633ZM389.91 68.4805L403.679 134.105L404.91 153.793H395.066L375.32 68.4805H389.91ZM447.8 133.93L461.394 68.4805H476.043L456.297 153.793H446.453L447.8 133.93ZM431.98 68.4805L448.797 134.809L451.258 153.793H442L424.129 85.5312L423.191 68.4805H431.98ZM506.244 68.4805V153.793H491.537V68.4805H506.244ZM573.008 131.82C573.008 130.062 572.735 128.5 572.188 127.133C571.68 125.766 570.762 124.516 569.434 123.383C568.106 122.25 566.231 121.156 563.809 120.102C561.426 119.008 558.379 117.895 554.668 116.762C550.606 115.512 546.856 114.125 543.418 112.602C540.02 111.039 537.051 109.242 534.512 107.211C531.973 105.141 530 102.777 528.594 100.121C527.188 97.4258 526.485 94.3203 526.485 90.8047C526.485 87.3281 527.208 84.1641 528.653 81.3125C530.137 78.4609 532.227 76 534.922 73.9297C537.657 71.8203 540.879 70.1992 544.59 69.0664C548.301 67.8945 552.403 67.3086 556.895 67.3086C563.223 67.3086 568.672 68.4805 573.243 70.8242C577.852 73.168 581.387 76.3125 583.848 80.2578C586.348 84.2031 587.598 88.5586 587.598 93.3242H573.008C573.008 90.5117 572.403 88.0312 571.192 85.8828C570.02 83.6953 568.223 81.9766 565.801 80.7266C563.418 79.4766 560.391 78.8516 556.719 78.8516C553.243 78.8516 550.352 79.3789 548.047 80.4336C545.743 81.4883 544.024 82.9141 542.891 84.7109C541.758 86.5078 541.192 88.5391 541.192 90.8047C541.192 92.4062 541.563 93.8711 542.305 95.1992C543.047 96.4883 544.18 97.6992 545.704 98.832C547.227 99.9258 549.141 100.961 551.446 101.938C553.75 102.914 556.465 103.852 559.59 104.75C564.317 106.156 568.438 107.719 571.954 109.438C575.469 111.117 578.399 113.031 580.743 115.18C583.086 117.328 584.844 119.77 586.016 122.504C587.188 125.199 587.774 128.266 587.774 131.703C587.774 135.297 587.051 138.539 585.606 141.43C584.161 144.281 582.09 146.723 579.395 148.754C576.739 150.746 573.536 152.289 569.786 153.383C566.075 154.438 561.934 154.965 557.364 154.965C553.262 154.965 549.219 154.418 545.235 153.324C541.29 152.23 537.696 150.57 534.454 148.344C531.211 146.078 528.633 143.266 526.719 139.906C524.805 136.508 523.848 132.543 523.848 128.012H538.555C538.555 130.785 539.024 133.148 539.961 135.102C540.938 137.055 542.286 138.656 544.004 139.906C545.723 141.117 547.715 142.016 549.981 142.602C552.286 143.188 554.747 143.48 557.364 143.48C560.801 143.48 563.672 142.992 565.977 142.016C568.321 141.039 570.079 139.672 571.25 137.914C572.422 136.156 573.008 134.125 573.008 131.82ZM619.089 68.4805V153.793H604.382V68.4805H619.089ZM670.358 68.4805L635.788 109.555L616.1 130.414L613.522 115.824L627.585 98.4805L652.429 68.4805H670.358ZM654.538 153.793L626.472 113.363L636.608 103.344L671.999 153.793H654.538ZM749.954 108.793V113.48C749.954 119.926 749.115 125.707 747.435 130.824C745.755 135.941 743.353 140.297 740.228 143.891C737.142 147.484 733.431 150.238 729.095 152.152C724.759 154.027 719.954 154.965 714.681 154.965C709.447 154.965 704.661 154.027 700.326 152.152C696.029 150.238 692.298 147.484 689.134 143.891C685.97 140.297 683.509 135.941 681.751 130.824C680.033 125.707 679.173 119.926 679.173 113.48V108.793C679.173 102.348 680.033 96.5859 681.751 91.5078C683.47 86.3906 685.892 82.0352 689.017 78.4414C692.181 74.8086 695.911 72.0547 700.208 70.1797C704.544 68.2656 709.329 67.3086 714.564 67.3086C719.837 67.3086 724.642 68.2656 728.978 70.1797C733.314 72.0547 737.044 74.8086 740.169 78.4414C743.294 82.0352 745.697 86.3906 747.376 91.5078C749.095 96.5859 749.954 102.348 749.954 108.793ZM735.247 113.48V108.676C735.247 103.91 734.779 99.7109 733.841 96.0781C732.943 92.4062 731.595 89.3398 729.798 86.8789C728.04 84.3789 725.872 82.5039 723.294 81.2539C720.716 79.9648 717.806 79.3203 714.564 79.3203C711.322 79.3203 708.431 79.9648 705.892 81.2539C703.353 82.5039 701.185 84.3789 699.388 86.8789C697.63 89.3398 696.283 92.4062 695.345 96.0781C694.408 99.7109 693.939 103.91 693.939 108.676V113.48C693.939 118.246 694.408 122.465 695.345 126.137C696.283 129.809 697.65 132.914 699.447 135.453C701.283 137.953 703.47 139.848 706.009 141.137C708.548 142.387 711.439 143.012 714.681 143.012C717.962 143.012 720.872 142.387 723.411 141.137C725.951 139.848 728.099 137.953 729.857 135.453C731.615 132.914 732.943 129.809 733.841 126.137C734.779 122.465 735.247 118.246 735.247 113.48Z"/>
</mask>
<path d="M201.604 68.4805H231.779C238.264 68.4805 243.791 69.457 248.361 71.4102C252.932 73.3633 256.428 76.2539 258.85 80.082C261.311 83.8711 262.541 88.5586 262.541 94.1445C262.541 98.4023 261.76 102.152 260.197 105.395C258.635 108.637 256.428 111.371 253.576 113.598C250.725 115.785 247.326 117.484 243.381 118.695L238.928 120.863H211.799L211.682 109.203H232.014C235.529 109.203 238.459 108.578 240.803 107.328C243.147 106.078 244.904 104.379 246.076 102.23C247.287 100.043 247.893 97.582 247.893 94.8477C247.893 91.8789 247.307 89.3008 246.135 87.1133C245.002 84.8867 243.244 83.1875 240.861 82.0156C238.479 80.8047 235.451 80.1992 231.779 80.1992H216.311V153.793H201.604V68.4805ZM250.295 153.793L230.256 115.473L245.666 115.414L265.998 153.031V153.793H250.295ZM402.625 134.633L419.617 68.4805H428.523L427.527 85.5312L409.363 153.793H400.105L402.625 134.633ZM389.91 68.4805L403.679 134.105L404.91 153.793H395.066L375.32 68.4805H389.91ZM447.8 133.93L461.394 68.4805H476.043L456.297 153.793H446.453L447.8 133.93ZM431.98 68.4805L448.797 134.809L451.258 153.793H442L424.129 85.5312L423.191 68.4805H431.98ZM506.244 68.4805V153.793H491.537V68.4805H506.244ZM573.008 131.82C573.008 130.062 572.735 128.5 572.188 127.133C571.68 125.766 570.762 124.516 569.434 123.383C568.106 122.25 566.231 121.156 563.809 120.102C561.426 119.008 558.379 117.895 554.668 116.762C550.606 115.512 546.856 114.125 543.418 112.602C540.02 111.039 537.051 109.242 534.512 107.211C531.973 105.141 530 102.777 528.594 100.121C527.188 97.4258 526.485 94.3203 526.485 90.8047C526.485 87.3281 527.208 84.1641 528.653 81.3125C530.137 78.4609 532.227 76 534.922 73.9297C537.657 71.8203 540.879 70.1992 544.59 69.0664C548.301 67.8945 552.403 67.3086 556.895 67.3086C563.223 67.3086 568.672 68.4805 573.243 70.8242C577.852 73.168 581.387 76.3125 583.848 80.2578C586.348 84.2031 587.598 88.5586 587.598 93.3242H573.008C573.008 90.5117 572.403 88.0312 571.192 85.8828C570.02 83.6953 568.223 81.9766 565.801 80.7266C563.418 79.4766 560.391 78.8516 556.719 78.8516C553.243 78.8516 550.352 79.3789 548.047 80.4336C545.743 81.4883 544.024 82.9141 542.891 84.7109C541.758 86.5078 541.192 88.5391 541.192 90.8047C541.192 92.4062 541.563 93.8711 542.305 95.1992C543.047 96.4883 544.18 97.6992 545.704 98.832C547.227 99.9258 549.141 100.961 551.446 101.938C553.75 102.914 556.465 103.852 559.59 104.75C564.317 106.156 568.438 107.719 571.954 109.438C575.469 111.117 578.399 113.031 580.743 115.18C583.086 117.328 584.844 119.77 586.016 122.504C587.188 125.199 587.774 128.266 587.774 131.703C587.774 135.297 587.051 138.539 585.606 141.43C584.161 144.281 582.09 146.723 579.395 148.754C576.739 150.746 573.536 152.289 569.786 153.383C566.075 154.438 561.934 154.965 557.364 154.965C553.262 154.965 549.219 154.418 545.235 153.324C541.29 152.23 537.696 150.57 534.454 148.344C531.211 146.078 528.633 143.266 526.719 139.906C524.805 136.508 523.848 132.543 523.848 128.012H538.555C538.555 130.785 539.024 133.148 539.961 135.102C540.938 137.055 542.286 138.656 544.004 139.906C545.723 141.117 547.715 142.016 549.981 142.602C552.286 143.188 554.747 143.48 557.364 143.48C560.801 143.48 563.672 142.992 565.977 142.016C568.321 141.039 570.079 139.672 571.25 137.914C572.422 136.156 573.008 134.125 573.008 131.82ZM619.089 68.4805V153.793H604.382V68.4805H619.089ZM670.358 68.4805L635.788 109.555L616.1 130.414L613.522 115.824L627.585 98.4805L652.429 68.4805H670.358ZM654.538 153.793L626.472 113.363L636.608 103.344L671.999 153.793H654.538ZM749.954 108.793V113.48C749.954 119.926 749.115 125.707 747.435 130.824C745.755 135.941 743.353 140.297 740.228 143.891C737.142 147.484 733.431 150.238 729.095 152.152C724.759 154.027 719.954 154.965 714.681 154.965C709.447 154.965 704.661 154.027 700.326 152.152C696.029 150.238 692.298 147.484 689.134 143.891C685.97 140.297 683.509 135.941 681.751 130.824C680.033 125.707 679.173 119.926 679.173 113.48V108.793C679.173 102.348 680.033 96.5859 681.751 91.5078C683.47 86.3906 685.892 82.0352 689.017 78.4414C692.181 74.8086 695.911 72.0547 700.208 70.1797C704.544 68.2656 709.329 67.3086 714.564 67.3086C719.837 67.3086 724.642 68.2656 728.978 70.1797C733.314 72.0547 737.044 74.8086 740.169 78.4414C743.294 82.0352 745.697 86.3906 747.376 91.5078C749.095 96.5859 749.954 102.348 749.954 108.793ZM735.247 113.48V108.676C735.247 103.91 734.779 99.7109 733.841 96.0781C732.943 92.4062 731.595 89.3398 729.798 86.8789C728.04 84.3789 725.872 82.5039 723.294 81.2539C720.716 79.9648 717.806 79.3203 714.564 79.3203C711.322 79.3203 708.431 79.9648 705.892 81.2539C703.353 82.5039 701.185 84.3789 699.388 86.8789C697.63 89.3398 696.283 92.4062 695.345 96.0781C694.408 99.7109 693.939 103.91 693.939 108.676V113.48C693.939 118.246 694.408 122.465 695.345 126.137C696.283 129.809 697.65 132.914 699.447 135.453C701.283 137.953 703.47 139.848 706.009 141.137C708.548 142.387 711.439 143.012 714.681 143.012C717.962 143.012 720.872 142.387 723.411 141.137C725.951 139.848 728.099 137.953 729.857 135.453C731.615 132.914 732.943 129.809 733.841 126.137C734.779 122.465 735.247 118.246 735.247 113.48Z" fill="#00529F"/>
<path d="M201.604 68.4805V61.4805C197.738 61.4805 194.604 64.6145 194.604 68.4805H201.604ZM258.85 80.082L252.934 83.8245C252.949 83.848 252.964 83.8715 252.979 83.8948L258.85 80.082ZM253.576 113.598L257.837 119.152C257.853 119.14 257.869 119.127 257.884 119.115L253.576 113.598ZM243.381 118.695L241.327 112.003C240.98 112.11 240.643 112.243 240.317 112.402L243.381 118.695ZM238.928 120.863V127.863C239.99 127.863 241.037 127.622 241.992 127.157L238.928 120.863ZM211.799 120.863L204.799 120.934C204.838 124.772 207.96 127.863 211.799 127.863V120.863ZM211.682 109.203V102.203C209.813 102.203 208.022 102.95 206.707 104.278C205.392 105.606 204.663 107.405 204.682 109.273L211.682 109.203ZM246.076 102.23L239.952 98.8403C239.945 98.853 239.938 98.8657 239.931 98.8785L246.076 102.23ZM246.135 87.1133L239.896 90.2875C239.918 90.3315 239.941 90.3753 239.964 90.4188L246.135 87.1133ZM240.861 82.0156L237.69 88.256C237.717 88.2699 237.745 88.2836 237.772 88.2971L240.861 82.0156ZM216.311 80.1992V73.1992C212.445 73.1992 209.311 76.3332 209.311 80.1992H216.311ZM216.311 153.793V160.793C220.177 160.793 223.311 157.659 223.311 153.793H216.311ZM201.604 153.793H194.604C194.604 157.659 197.738 160.793 201.604 160.793V153.793ZM250.295 153.793L244.092 157.037C245.299 159.346 247.689 160.793 250.295 160.793V153.793ZM230.256 115.473L230.229 108.473C227.785 108.482 225.523 109.765 224.261 111.858C222.999 113.951 222.92 116.551 224.053 118.716L230.256 115.473ZM245.666 115.414L251.824 112.086C250.597 109.815 248.22 108.404 245.639 108.414L245.666 115.414ZM265.998 153.031H272.998C272.998 151.869 272.709 150.725 272.156 149.703L265.998 153.031ZM265.998 153.793V160.793C269.864 160.793 272.998 157.659 272.998 153.793H265.998ZM201.604 68.4805V75.4805H231.779V68.4805V61.4805H201.604V68.4805ZM231.779 68.4805V75.4805C237.593 75.4805 242.131 76.3601 245.611 77.847L248.361 71.4102L251.112 64.9733C245.451 62.554 238.935 61.4805 231.779 61.4805V68.4805ZM248.361 71.4102L245.611 77.847C249.01 79.2998 251.344 81.3105 252.934 83.8245L258.85 80.082L264.765 76.3395C261.512 71.1974 256.853 67.4268 251.112 64.9733L248.361 71.4102ZM258.85 80.082L252.979 83.8948C254.546 86.3069 255.541 89.5913 255.541 94.1445H262.541H269.541C269.541 87.5259 268.075 81.4353 264.72 76.2692L258.85 80.082ZM262.541 94.1445H255.541C255.541 97.541 254.921 100.22 253.891 102.356L260.197 105.395L266.503 108.434C268.599 104.085 269.541 99.2637 269.541 94.1445H262.541ZM260.197 105.395L253.891 102.356C252.798 104.624 251.277 106.512 249.268 108.08L253.576 113.598L257.884 119.115C261.579 116.23 264.471 112.65 266.503 108.434L260.197 105.395ZM253.576 113.598L249.316 108.044C247.216 109.654 244.592 111.001 241.327 112.003L243.381 118.695L245.435 125.387C250.061 123.967 254.233 121.916 257.837 119.152L253.576 113.598ZM243.381 118.695L240.317 112.402L235.864 114.57L238.928 120.863L241.992 127.157L246.445 124.989L243.381 118.695ZM238.928 120.863V113.863H211.799V120.863V127.863H238.928V120.863ZM211.799 120.863L218.799 120.793L218.681 109.133L211.682 109.203L204.682 109.273L204.799 120.934L211.799 120.863ZM211.682 109.203V116.203H232.014V109.203V102.203H211.682V109.203ZM232.014 109.203V116.203C236.32 116.203 240.465 115.442 244.097 113.505L240.803 107.328L237.509 101.152C236.454 101.714 234.738 102.203 232.014 102.203V109.203ZM240.803 107.328L244.097 113.505C247.539 111.669 250.339 109.033 252.222 105.582L246.076 102.23L239.931 98.8785C239.469 99.7247 238.754 100.487 237.509 101.152L240.803 107.328ZM246.076 102.23L252.201 105.621C254.039 102.3 254.893 98.6542 254.893 94.8477H247.893H240.893C240.893 96.5098 240.536 97.7856 239.952 98.8403L246.076 102.23ZM247.893 94.8477H254.893C254.893 90.951 254.119 87.1936 252.305 83.8077L246.135 87.1133L239.964 90.4188C240.494 91.4079 240.893 92.8068 240.893 94.8477H247.893ZM246.135 87.1133L252.374 83.9391C250.51 80.2757 247.601 77.5292 243.951 75.7342L240.861 82.0156L237.772 88.2971C238.888 88.8458 239.494 89.4977 239.896 90.2875L246.135 87.1133ZM240.861 82.0156L244.033 75.7752C240.37 73.914 236.163 73.1992 231.779 73.1992V80.1992V87.1992C234.739 87.1992 236.587 87.6954 237.69 88.256L240.861 82.0156ZM231.779 80.1992V73.1992H216.311V80.1992V87.1992H231.779V80.1992ZM216.311 80.1992H209.311V153.793H216.311H223.311V80.1992H216.311ZM216.311 153.793V146.793H201.604V153.793V160.793H216.311V153.793ZM201.604 153.793H208.604V68.4805H201.604H194.604V153.793H201.604ZM250.295 153.793L256.498 150.549L236.459 112.229L230.256 115.473L224.053 118.716L244.092 157.037L250.295 153.793ZM230.256 115.473L230.283 122.473L245.693 122.414L245.666 115.414L245.639 108.414L230.229 108.473L230.256 115.473ZM245.666 115.414L239.508 118.742L259.84 156.36L265.998 153.031L272.156 149.703L251.824 112.086L245.666 115.414ZM265.998 153.031H258.998V153.793H265.998H272.998V153.031H265.998ZM265.998 153.793V146.793H250.295V153.793V160.793H265.998V153.793ZM402.625 134.633L395.845 132.891C395.775 133.164 395.721 133.441 395.684 133.72L402.625 134.633ZM419.617 68.4805V61.4805C416.422 61.4805 413.632 63.6442 412.837 66.739L419.617 68.4805ZM428.523 68.4805L435.511 68.8887C435.624 66.9646 434.938 65.0793 433.615 63.6772C432.293 62.2752 430.451 61.4805 428.523 61.4805V68.4805ZM427.527 85.5312L434.292 87.3313C434.413 86.876 434.488 86.4098 434.515 85.9395L427.527 85.5312ZM409.363 153.793V160.793C412.536 160.793 415.312 158.659 416.128 155.593L409.363 153.793ZM400.105 153.793L393.165 152.88C392.902 154.879 393.514 156.893 394.843 158.409C396.172 159.924 398.09 160.793 400.105 160.793V153.793ZM389.91 68.4805L396.761 67.043C396.081 63.8016 393.222 61.4805 389.91 61.4805V68.4805ZM403.679 134.105L410.666 133.669C410.645 133.332 410.599 132.998 410.53 132.668L403.679 134.105ZM404.91 153.793V160.793C406.842 160.793 408.689 159.994 410.012 158.586C411.335 157.178 412.017 155.285 411.896 153.356L404.91 153.793ZM395.066 153.793L388.246 155.371C388.981 158.545 391.808 160.793 395.066 160.793V153.793ZM375.32 68.4805V61.4805C373.186 61.4805 371.169 62.4539 369.841 64.1244C368.513 65.7949 368.019 67.9799 368.5 70.0589L375.32 68.4805ZM447.8 133.93L440.947 132.506C440.882 132.819 440.838 133.137 440.817 133.456L447.8 133.93ZM461.394 68.4805V61.4805C458.077 61.4805 455.215 63.8089 454.54 67.057L461.394 68.4805ZM476.043 68.4805L482.862 70.0589C483.344 67.9799 482.85 65.7949 481.522 64.1244C480.194 62.4539 478.177 61.4805 476.043 61.4805V68.4805ZM456.297 153.793V160.793C459.554 160.793 462.382 158.545 463.116 155.371L456.297 153.793ZM446.453 153.793L439.469 153.319C439.338 155.254 440.015 157.156 441.338 158.572C442.662 159.989 444.514 160.793 446.453 160.793V153.793ZM431.98 68.4805L438.765 66.7602C437.978 63.655 435.184 61.4805 431.98 61.4805V68.4805ZM448.797 134.809L455.738 133.909C455.703 133.632 455.65 133.358 455.582 133.088L448.797 134.809ZM451.258 153.793V160.793C453.271 160.793 455.187 159.926 456.516 158.414C457.845 156.901 458.458 154.89 458.199 152.893L451.258 153.793ZM442 153.793L435.228 155.566C436.034 158.645 438.817 160.793 442 160.793V153.793ZM424.129 85.5312L417.139 85.9155C417.165 86.3845 417.238 86.8497 417.357 87.3041L424.129 85.5312ZM423.191 68.4805V61.4805C421.268 61.4805 419.429 62.2718 418.107 63.6685C416.785 65.0653 416.096 66.9444 416.202 68.8648L423.191 68.4805ZM402.625 134.633L409.405 136.374L426.397 70.222L419.617 68.4805L412.837 66.739L395.845 132.891L402.625 134.633ZM419.617 68.4805V75.4805H428.523V68.4805V61.4805H419.617V68.4805ZM428.523 68.4805L421.535 68.0722L420.539 85.123L427.527 85.5312L434.515 85.9395L435.511 68.8887L428.523 68.4805ZM427.527 85.5312L420.762 83.7312L402.598 151.993L409.363 153.793L416.128 155.593L434.292 87.3313L427.527 85.5312ZM409.363 153.793V146.793H400.105V153.793V160.793H409.363V153.793ZM400.105 153.793L407.045 154.706L409.565 135.545L402.625 134.633L395.684 133.72L393.165 152.88L400.105 153.793ZM389.91 68.4805L383.059 69.9179L396.829 135.543L403.679 134.105L410.53 132.668L396.761 67.043L389.91 68.4805ZM403.679 134.105L396.693 134.542L397.923 154.23L404.91 153.793L411.896 153.356L410.666 133.669L403.679 134.105ZM404.91 153.793V146.793H395.066V153.793V160.793H404.91V153.793ZM395.066 153.793L401.886 152.215L382.14 66.902L375.32 68.4805L368.5 70.0589L388.246 155.371L395.066 153.793ZM375.32 68.4805V75.4805H389.91V68.4805V61.4805H375.32V68.4805ZM447.8 133.93L454.654 135.353L468.248 69.904L461.394 68.4805L454.54 67.057L440.947 132.506L447.8 133.93ZM461.394 68.4805V75.4805H476.043V68.4805V61.4805H461.394V68.4805ZM476.043 68.4805L469.223 66.902L449.477 152.215L456.297 153.793L463.116 155.371L482.862 70.0589L476.043 68.4805ZM456.297 153.793V146.793H446.453V153.793V160.793H456.297V153.793ZM446.453 153.793L453.437 154.267L454.784 134.404L447.8 133.93L440.817 133.456L439.469 153.319L446.453 153.793ZM431.98 68.4805L425.195 70.2008L442.011 136.529L448.797 134.809L455.582 133.088L438.765 66.7602L431.98 68.4805ZM448.797 134.809L441.855 135.708L444.316 154.693L451.258 153.793L458.199 152.893L455.738 133.909L448.797 134.809ZM451.258 153.793V146.793H442V153.793V160.793H451.258V153.793ZM442 153.793L448.771 152.02L430.9 83.7584L424.129 85.5312L417.357 87.3041L435.228 155.566L442 153.793ZM424.129 85.5312L431.118 85.147L430.181 68.0962L423.191 68.4805L416.202 68.8648L417.139 85.9155L424.129 85.5312ZM423.191 68.4805V75.4805H431.98V68.4805V61.4805H423.191V68.4805ZM506.244 68.4805H513.244C513.244 64.6145 510.11 61.4805 506.244 61.4805V68.4805ZM506.244 153.793V160.793C510.11 160.793 513.244 157.659 513.244 153.793H506.244ZM491.537 153.793H484.537C484.537 157.659 487.671 160.793 491.537 160.793V153.793ZM491.537 68.4805V61.4805C487.671 61.4805 484.537 64.6145 484.537 68.4805H491.537ZM506.244 68.4805H499.244V153.793H506.244H513.244V68.4805H506.244ZM506.244 153.793V146.793H491.537V153.793V160.793H506.244V153.793ZM491.537 153.793H498.537V68.4805H491.537H484.537V153.793H491.537ZM491.537 68.4805V75.4805H506.244V68.4805V61.4805H491.537V68.4805ZM572.188 127.133L565.626 129.57C565.646 129.625 565.667 129.679 565.689 129.733L572.188 127.133ZM569.434 123.383L564.891 128.709L569.434 123.383ZM563.809 120.102L560.889 126.463C560.93 126.482 560.972 126.501 561.014 126.519L563.809 120.102ZM554.668 116.762L552.61 123.452C552.615 123.454 552.62 123.455 552.625 123.457L554.668 116.762ZM543.418 112.602L540.494 118.962C540.524 118.975 540.553 118.988 540.582 119.001L543.418 112.602ZM534.512 107.211L530.089 112.636C530.105 112.65 530.122 112.663 530.139 112.677L534.512 107.211ZM528.594 100.121L522.388 103.359C522.395 103.371 522.401 103.384 522.408 103.396L528.594 100.121ZM528.653 81.3125L522.444 78.0804C522.432 78.1028 522.42 78.1253 522.409 78.1478L528.653 81.3125ZM534.922 73.9297L539.186 79.481C539.19 79.4781 539.194 79.4751 539.198 79.4722L534.922 73.9297ZM544.59 69.0664L546.634 75.7614C546.655 75.7549 546.677 75.7482 546.698 75.7415L544.59 69.0664ZM573.243 70.8242L570.048 77.0529C570.056 77.0566 570.063 77.0603 570.07 77.0639L573.243 70.8242ZM583.848 80.2578L577.909 83.9625C577.918 83.9766 577.926 83.9906 577.935 84.0046L583.848 80.2578ZM587.598 93.3242V100.324C591.464 100.324 594.598 97.1902 594.598 93.3242H587.598ZM573.008 93.3242H566.008C566.008 97.1902 569.142 100.324 573.008 100.324V93.3242ZM571.192 85.8828L565.022 89.1884C565.045 89.2325 565.069 89.2763 565.094 89.3199L571.192 85.8828ZM565.801 80.7266L562.549 86.9254C562.563 86.9326 562.577 86.9398 562.591 86.9469L565.801 80.7266ZM548.047 80.4336L545.134 74.0684L548.047 80.4336ZM542.305 95.1992L536.195 98.614C536.209 98.6401 536.224 98.6661 536.239 98.692L542.305 95.1992ZM545.704 98.832L541.527 104.449C541.558 104.473 541.589 104.496 541.621 104.518L545.704 98.832ZM559.59 104.75L561.587 98.0407C561.566 98.0345 561.545 98.0285 561.524 98.0225L559.59 104.75ZM571.954 109.438L568.879 115.726C568.898 115.735 568.917 115.745 568.936 115.754L571.954 109.438ZM586.016 122.504L579.582 125.261C579.587 125.273 579.592 125.284 579.597 125.295L586.016 122.504ZM585.606 141.43L591.85 144.594C591.856 144.583 591.861 144.572 591.867 144.56L585.606 141.43ZM579.395 148.754L583.595 154.354C583.599 154.351 583.604 154.347 583.608 154.344L579.395 148.754ZM569.786 153.383L571.699 160.116C571.715 160.112 571.73 160.107 571.746 160.103L569.786 153.383ZM545.235 153.324L543.365 160.07C543.37 160.071 543.376 160.073 543.382 160.075L545.235 153.324ZM534.454 148.344L530.444 154.082C530.46 154.093 530.475 154.103 530.491 154.114L534.454 148.344ZM526.719 139.906L520.62 143.341C520.626 143.351 520.631 143.362 520.637 143.372L526.719 139.906ZM523.848 128.012V121.012C519.982 121.012 516.848 124.146 516.848 128.012H523.848ZM538.555 128.012H545.555C545.555 124.146 542.421 121.012 538.555 121.012V128.012ZM539.961 135.102L533.651 138.131C533.667 138.165 533.684 138.198 533.7 138.232L539.961 135.102ZM544.004 139.906L539.887 145.567C539.916 145.588 539.944 145.608 539.973 145.629L544.004 139.906ZM549.981 142.602L548.228 149.379C548.238 149.381 548.247 149.383 548.256 149.386L549.981 142.602ZM565.977 142.016L563.285 135.554C563.272 135.559 563.259 135.565 563.246 135.57L565.977 142.016ZM573.008 131.82H580.008C580.008 129.341 579.622 126.871 578.687 124.533L572.188 127.133L565.689 129.733C565.847 130.129 566.008 130.784 566.008 131.82H573.008ZM572.188 127.133L578.75 124.696C577.752 122.008 576.035 119.812 573.977 118.057L569.434 123.383L564.891 128.709C565.49 129.219 565.609 129.524 565.626 129.57L572.188 127.133ZM569.434 123.383L573.977 118.057C571.927 116.309 569.369 114.888 566.604 113.684L563.809 120.102L561.014 126.519C563.092 127.424 564.285 128.191 564.891 128.709L569.434 123.383ZM563.809 120.102L566.729 113.74C563.962 112.47 560.595 111.252 556.712 110.067L554.668 116.762L552.625 123.457C556.164 124.537 558.89 125.546 560.889 126.463L563.809 120.102ZM554.668 116.762L556.727 110.071C552.896 108.892 549.409 107.6 546.255 106.202L543.418 112.602L540.582 119.001C544.303 120.65 548.316 122.131 552.61 123.452L554.668 116.762ZM543.418 112.602L546.343 106.242C543.386 104.882 540.919 103.372 538.885 101.745L534.512 107.211L530.139 112.677C533.184 115.113 536.654 117.196 540.494 118.962L543.418 112.602ZM534.512 107.211L538.936 101.786C537.056 100.253 535.711 98.6029 534.781 96.8459L528.594 100.121L522.408 103.396C524.29 106.952 526.89 110.028 530.089 112.636L534.512 107.211ZM528.594 100.121L534.8 96.8831C533.992 95.3335 533.485 93.3699 533.485 90.8047H526.485H519.485C519.485 95.2707 520.384 99.5181 522.388 103.359L528.594 100.121ZM526.485 90.8047H533.485C533.485 88.3297 533.991 86.264 534.897 84.4772L528.653 81.3125L522.409 78.1478C520.424 82.0642 519.485 86.3266 519.485 90.8047H526.485ZM528.653 81.3125L534.862 84.5446C535.848 82.6502 537.254 80.9657 539.186 79.481L534.922 73.9297L530.658 68.3783C527.201 71.0343 524.426 74.2716 522.444 78.0804L528.653 81.3125ZM534.922 73.9297L539.198 79.4722C541.187 77.9381 543.631 76.678 546.634 75.7614L544.59 69.0664L542.547 62.3714C538.127 63.7204 534.127 65.7025 530.647 68.3872L534.922 73.9297ZM544.59 69.0664L546.698 75.7415C549.631 74.8152 553.01 74.3086 556.895 74.3086V67.3086V60.3086C551.796 60.3086 546.971 60.9738 542.482 62.3913L544.59 69.0664ZM556.895 67.3086V74.3086C562.366 74.3086 566.67 75.3203 570.048 77.0529L573.243 70.8242L576.437 64.5955C570.675 61.6406 564.081 60.3086 556.895 60.3086V67.3086ZM573.243 70.8242L570.07 77.0639C573.674 78.8967 576.196 81.2163 577.909 83.9625L583.848 80.2578L589.787 76.5531C586.579 71.4087 582.03 67.4392 576.415 64.5845L573.243 70.8242ZM583.848 80.2578L577.935 84.0046C579.71 86.8054 580.598 89.8568 580.598 93.3242H587.598H594.598C594.598 87.2604 592.986 81.6009 589.761 76.5111L583.848 80.2578ZM587.598 93.3242V86.3242H573.008V93.3242V100.324H587.598V93.3242ZM573.008 93.3242H580.008C580.008 89.4791 579.171 85.7831 577.29 82.4457L571.192 85.8828L565.094 89.3199C565.635 90.2794 566.008 91.5444 566.008 93.3242H573.008ZM571.192 85.8828L577.362 82.5773C575.456 79.0187 572.563 76.3392 569.012 74.5062L565.801 80.7266L562.591 86.9469C563.883 87.6139 564.584 88.372 565.022 89.1884L571.192 85.8828ZM565.801 80.7266L569.053 74.5277C565.369 72.595 561.131 71.8516 556.719 71.8516V78.8516V85.8516C559.651 85.8516 561.468 86.3581 562.549 86.9254L565.801 80.7266ZM556.719 78.8516V71.8516C552.589 71.8516 548.627 72.4704 545.134 74.0684L548.047 80.4336L550.96 86.7987C552.078 86.2874 553.896 85.8516 556.719 85.8516V78.8516ZM548.047 80.4336L545.134 74.0684C541.835 75.5784 538.958 77.8232 536.97 80.9778L542.891 84.7109L548.813 88.444C549.089 88.0049 549.65 87.3982 550.96 86.7987L548.047 80.4336ZM542.891 84.7109L536.97 80.9778C535.085 83.9676 534.192 87.3098 534.192 90.8047H541.192H548.192C548.192 89.7684 548.432 89.048 548.813 88.444L542.891 84.7109ZM541.192 90.8047H534.192C534.192 93.5365 534.838 96.1867 536.195 98.614L542.305 95.1992L548.416 91.7845C548.288 91.5555 548.192 91.276 548.192 90.8047H541.192ZM542.305 95.1992L536.239 98.692C537.571 101.006 539.439 102.897 541.527 104.449L545.704 98.832L549.881 93.2148C548.921 92.5016 548.523 91.9703 548.372 91.7065L542.305 95.1992ZM545.704 98.832L541.621 104.518C543.679 105.995 546.081 107.267 548.715 108.383L551.446 101.938L554.177 95.4922C552.201 94.6552 550.775 93.8561 549.786 93.1458L545.704 98.832ZM551.446 101.938L548.715 108.383C551.342 109.496 554.335 110.523 557.656 111.477L559.59 104.75L561.524 98.0225C558.595 97.1804 556.158 96.3319 554.177 95.4922L551.446 101.938ZM559.59 104.75L557.594 111.459C562.041 112.782 565.786 114.214 568.879 115.726L571.954 109.438L575.028 103.149C571.09 101.223 566.593 99.5301 561.587 98.0407L559.59 104.75ZM571.954 109.438L568.936 115.754C571.962 117.199 574.279 118.751 576.013 120.34L580.743 115.18L585.473 110.02C582.519 107.312 578.977 105.035 574.971 103.121L571.954 109.438ZM580.743 115.18L576.013 120.34C577.676 121.864 578.828 123.501 579.582 125.261L586.016 122.504L592.45 119.746C590.861 116.038 588.497 112.792 585.473 110.02L580.743 115.18ZM586.016 122.504L579.597 125.295C580.326 126.973 580.774 129.065 580.774 131.703H587.774H594.774C594.774 127.466 594.05 123.425 592.436 119.713L586.016 122.504ZM587.774 131.703H580.774C580.774 134.333 580.252 136.485 579.345 138.299L585.606 141.43L591.867 144.56C593.851 140.593 594.774 136.26 594.774 131.703H587.774ZM585.606 141.43L579.362 138.265C578.427 140.111 577.073 141.739 575.182 143.164L579.395 148.754L583.608 154.344C587.108 151.707 589.895 148.452 591.85 144.594L585.606 141.43ZM579.395 148.754L575.195 143.154C573.319 144.561 570.907 145.764 567.826 146.663L569.786 153.383L571.746 160.103C576.164 158.814 580.158 156.932 583.595 154.354L579.395 148.754ZM569.786 153.383L567.872 146.649C564.886 147.498 561.403 147.965 557.364 147.965V154.965V161.965C562.466 161.965 567.264 161.377 571.699 160.116L569.786 153.383ZM557.364 154.965V147.965C553.893 147.965 550.473 147.503 547.088 146.574L545.235 153.324L543.382 160.075C547.965 161.333 552.631 161.965 557.364 161.965V154.965ZM545.235 153.324L547.105 146.579C543.875 145.683 540.994 144.344 538.416 142.573L534.454 148.344L530.491 154.114C534.398 156.797 538.704 158.778 543.365 160.07L545.235 153.324ZM534.454 148.344L538.463 142.606C536.052 140.921 534.189 138.877 532.801 136.441L526.719 139.906L520.637 143.372C523.077 147.654 526.371 151.236 530.444 154.082L534.454 148.344ZM526.719 139.906L532.818 136.471C531.584 134.28 530.848 131.536 530.848 128.012H523.848H516.848C516.848 133.55 518.026 138.736 520.62 143.341L526.719 139.906ZM523.848 128.012V135.012H538.555V128.012V121.012H523.848V128.012ZM538.555 128.012H531.555C531.555 131.55 532.151 135.006 533.651 138.131L539.961 135.102L546.272 132.072C545.897 131.291 545.555 130.021 545.555 128.012H538.555ZM539.961 135.102L533.7 138.232C535.164 141.16 537.236 143.639 539.887 145.567L544.004 139.906L548.122 134.245C547.335 133.673 546.712 132.95 546.222 131.971L539.961 135.102ZM544.004 139.906L539.973 145.629C542.455 147.377 545.238 148.605 548.228 149.379L549.981 142.602L551.734 135.825C550.193 135.426 548.991 134.857 548.036 134.184L544.004 139.906ZM549.981 142.602L548.256 149.386C551.178 150.129 554.223 150.48 557.364 150.48V143.48V136.48C555.271 136.48 553.393 136.246 551.706 135.817L549.981 142.602ZM557.364 143.48V150.48C561.412 150.48 565.281 149.913 568.708 148.461L565.977 142.016L563.246 135.57C562.063 136.072 560.191 136.48 557.364 136.48V143.48ZM565.977 142.016L568.669 148.477C572.028 147.078 574.993 144.919 577.075 141.797L571.25 137.914L565.426 134.031C565.164 134.424 564.614 135 563.285 135.554L565.977 142.016ZM571.25 137.914L577.075 141.797C579.083 138.785 580.008 135.376 580.008 131.82H573.008H566.008C566.008 132.874 565.762 133.528 565.426 134.031L571.25 137.914ZM619.089 68.4805H626.089C626.089 64.6145 622.955 61.4805 619.089 61.4805V68.4805ZM619.089 153.793V160.793C622.955 160.793 626.089 157.659 626.089 153.793H619.089ZM604.382 153.793H597.382C597.382 157.659 600.516 160.793 604.382 160.793V153.793ZM604.382 68.4805V61.4805C600.516 61.4805 597.382 64.6145 597.382 68.4805H604.382ZM670.358 68.4805L675.714 72.988C677.467 70.9052 677.853 67.995 676.705 65.5269C675.556 63.0588 673.081 61.4805 670.358 61.4805V68.4805ZM635.788 109.555L640.879 114.359C640.97 114.263 641.058 114.164 641.144 114.062L635.788 109.555ZM616.1 130.414L609.207 131.632C609.668 134.238 611.558 136.361 614.093 137.12C616.629 137.879 619.375 137.143 621.191 135.219L616.1 130.414ZM613.522 115.824L608.085 111.416C606.807 112.992 606.276 115.044 606.629 117.042L613.522 115.824ZM627.585 98.4805L622.194 94.0158C622.178 94.0344 622.163 94.0531 622.148 94.0719L627.585 98.4805ZM652.429 68.4805V61.4805C650.344 61.4805 648.367 62.4099 647.037 64.0158L652.429 68.4805ZM654.538 153.793L648.788 157.785C650.096 159.669 652.244 160.793 654.538 160.793V153.793ZM626.472 113.363L621.551 108.385C619.131 110.776 618.781 114.561 620.721 117.355L626.472 113.363ZM636.608 103.344L642.339 99.3237C641.155 97.6365 639.288 96.5566 637.236 96.3719C635.183 96.1872 633.153 96.9165 631.687 98.3653L636.608 103.344ZM671.999 153.793V160.793C674.61 160.793 677.005 159.339 678.209 157.022C679.414 154.706 679.229 151.911 677.729 149.773L671.999 153.793ZM619.089 68.4805H612.089V153.793H619.089H626.089V68.4805H619.089ZM619.089 153.793V146.793H604.382V153.793V160.793H619.089V153.793ZM604.382 153.793H611.382V68.4805H604.382H597.382V153.793H604.382ZM604.382 68.4805V75.4805H619.089V68.4805V61.4805H604.382V68.4805ZM670.358 68.4805L665.003 63.9729L630.432 105.047L635.788 109.555L641.144 114.062L675.714 72.988L670.358 68.4805ZM635.788 109.555L630.697 104.75L611.01 125.609L616.1 130.414L621.191 135.219L640.879 114.359L635.788 109.555ZM616.1 130.414L622.994 129.196L620.416 114.606L613.522 115.824L606.629 117.042L609.207 131.632L616.1 130.414ZM613.522 115.824L618.96 120.233L633.022 102.889L627.585 98.4805L622.148 94.0719L608.085 111.416L613.522 115.824ZM627.585 98.4805L632.976 102.945L657.82 72.9452L652.429 68.4805L647.037 64.0158L622.194 94.0158L627.585 98.4805ZM652.429 68.4805V75.4805H670.358V68.4805V61.4805H652.429V68.4805ZM654.538 153.793L660.288 149.801L632.222 109.371L626.472 113.363L620.721 117.355L648.788 157.785L654.538 153.793ZM626.472 113.363L631.392 118.342L641.529 108.322L636.608 103.344L631.687 98.3653L621.551 108.385L626.472 113.363ZM636.608 103.344L630.878 107.364L666.268 157.813L671.999 153.793L677.729 149.773L642.339 99.3237L636.608 103.344ZM671.999 153.793V146.793H654.538V153.793V160.793H671.999V153.793ZM740.228 143.891L734.946 139.297C734.936 139.308 734.927 139.319 734.917 139.33L740.228 143.891ZM729.095 152.152L731.873 158.577C731.89 158.57 731.906 158.563 731.922 158.556L729.095 152.152ZM700.326 152.152L697.477 158.547C697.5 158.557 697.524 158.567 697.547 158.577L700.326 152.152ZM681.751 130.824L675.116 133.053C675.121 133.068 675.126 133.083 675.131 133.098L681.751 130.824ZM681.751 91.5078L688.382 93.752C688.384 93.7469 688.385 93.7417 688.387 93.7366L681.751 91.5078ZM689.017 78.4414L683.738 73.8439L683.735 73.8482L689.017 78.4414ZM700.208 70.1797L703.008 76.5955C703.017 76.5915 703.026 76.5875 703.035 76.5835L700.208 70.1797ZM728.978 70.1797L726.151 76.5835C726.167 76.5906 726.183 76.5977 726.199 76.6047L728.978 70.1797ZM740.169 78.4414L734.863 83.0063C734.871 83.0158 734.879 83.0252 734.887 83.0347L740.169 78.4414ZM747.376 91.5078L740.725 93.6909C740.732 93.7113 740.739 93.7317 740.746 93.752L747.376 91.5078ZM733.841 96.0781L727.042 97.7418C727.049 97.7703 727.056 97.7988 727.063 97.8273L733.841 96.0781ZM729.798 86.8789L724.072 90.9051C724.096 90.9392 724.12 90.9731 724.145 91.0068L729.798 86.8789ZM723.294 81.2539L720.164 87.5149C720.189 87.5276 720.215 87.5402 720.24 87.5526L723.294 81.2539ZM705.892 81.2539L708.984 87.5341C709.009 87.5214 709.035 87.5086 709.061 87.4956L705.892 81.2539ZM699.388 86.8789L693.704 82.7935C693.7 82.799 693.696 82.8046 693.692 82.8102L699.388 86.8789ZM695.345 96.0781L702.123 97.8273C702.124 97.8215 702.126 97.8156 702.127 97.8098L695.345 96.0781ZM699.447 135.453L693.733 139.497C693.756 139.53 693.78 139.563 693.805 139.596L699.447 135.453ZM706.009 141.137L702.84 147.378C702.866 147.391 702.892 147.404 702.917 147.417L706.009 141.137ZM723.411 141.137L726.503 147.417C726.529 147.404 726.555 147.391 726.58 147.378L723.411 141.137ZM729.857 135.453L735.583 139.479C735.593 139.465 735.602 139.452 735.612 139.438L729.857 135.453ZM733.841 126.137L727.059 124.405C727.053 124.428 727.047 124.45 727.042 124.473L733.841 126.137ZM749.954 108.793H742.954V113.48H749.954H756.954V108.793H749.954ZM749.954 113.48H742.954C742.954 119.326 742.192 124.351 740.784 128.641L747.435 130.824L754.086 133.007C756.037 127.063 756.954 120.526 756.954 113.48H749.954ZM747.435 130.824L740.784 128.641C739.357 132.987 737.383 136.494 734.946 139.297L740.228 143.891L745.51 148.484C749.323 144.1 752.153 138.895 754.086 133.007L747.435 130.824ZM740.228 143.891L734.917 139.33C732.512 142.132 729.65 144.256 726.268 145.749L729.095 152.152L731.922 158.556C737.212 156.221 741.772 152.837 745.539 148.451L740.228 143.891ZM729.095 152.152L726.317 145.727C722.955 147.181 719.11 147.965 714.681 147.965V154.965V161.965C720.799 161.965 726.564 160.874 731.873 158.577L729.095 152.152ZM714.681 154.965V147.965C710.299 147.965 706.472 147.184 703.104 145.727L700.326 152.152L697.547 158.577C702.851 160.871 708.595 161.965 714.681 161.965V154.965ZM700.326 152.152L703.174 145.758C699.814 144.261 696.899 142.117 694.388 139.265L689.134 143.891L683.88 148.516C687.697 152.852 692.244 156.215 697.477 158.547L700.326 152.152ZM689.134 143.891L694.388 139.265C691.902 136.442 689.871 132.914 688.372 128.55L681.751 130.824L675.131 133.098C677.148 138.969 680.038 144.152 683.88 148.516L689.134 143.891ZM681.751 130.824L688.387 128.595C686.951 124.32 686.173 119.311 686.173 113.48H679.173H672.173C672.173 120.541 673.114 127.094 675.116 133.053L681.751 130.824ZM679.173 113.48H686.173V108.793H679.173H672.173V113.48H679.173ZM679.173 108.793H686.173C686.173 102.961 686.951 97.978 688.382 93.752L681.751 91.5078L675.121 89.2636C673.114 95.1939 672.173 101.734 672.173 108.793H679.173ZM681.751 91.5078L688.387 93.7366C689.853 89.3731 691.851 85.8502 694.299 83.0347L689.017 78.4414L683.735 73.8482C679.933 78.2201 677.087 83.4081 675.116 89.279L681.751 91.5078ZM689.017 78.4414L694.295 83.0389C696.798 80.1661 699.689 78.0439 703.008 76.5955L700.208 70.1797L697.409 63.7639C692.134 66.0655 687.564 69.4511 683.738 73.8439L689.017 78.4414ZM700.208 70.1797L703.035 76.5835C706.392 75.1019 710.201 74.3086 714.564 74.3086V67.3086V60.3086C708.458 60.3086 702.697 61.4294 697.381 63.7759L700.208 70.1797ZM714.564 67.3086V74.3086C718.974 74.3086 722.801 75.1047 726.151 76.5835L728.978 70.1797L731.805 63.7759C726.483 61.4265 720.701 60.3086 714.564 60.3086V67.3086ZM728.978 70.1797L726.199 76.6047C729.548 78.0528 732.418 80.165 734.863 83.0063L740.169 78.4414L745.476 73.8765C741.67 69.4522 737.079 66.0566 731.756 63.7547L728.978 70.1797ZM740.169 78.4414L734.887 83.0347C737.325 85.8379 739.299 89.3446 740.725 93.6909L747.376 91.5078L754.027 89.3247C752.094 83.4366 749.264 78.2324 745.451 73.8482L740.169 78.4414ZM747.376 91.5078L740.746 93.752C742.176 97.978 742.954 102.961 742.954 108.793H749.954H756.954C756.954 101.734 756.014 95.1939 754.007 89.2636L747.376 91.5078ZM735.247 113.48H742.247V108.676H735.247H728.247V113.48H735.247ZM735.247 108.676H742.247C742.247 103.471 741.737 98.6626 740.619 94.329L733.841 96.0781L727.063 97.8273C727.82 100.759 728.247 104.35 728.247 108.676H735.247ZM733.841 96.0781L740.641 94.4144C739.575 90.061 737.901 86.1051 735.452 82.751L729.798 86.8789L724.145 91.0068C725.29 92.5746 726.31 94.7515 727.042 97.7418L733.841 96.0781ZM729.798 86.8789L735.524 82.8527C733.13 79.4475 730.067 76.7581 726.348 74.9552L723.294 81.2539L720.24 87.5526C721.678 88.2497 722.951 89.3103 724.072 90.9051L729.798 86.8789ZM723.294 81.2539L726.425 74.9929C722.759 73.1601 718.756 72.3203 714.564 72.3203V79.3203V86.3203C716.856 86.3203 718.673 86.7695 720.164 87.5149L723.294 81.2539ZM714.564 79.3203V72.3203C710.374 72.3203 706.372 73.1595 702.723 75.0122L705.892 81.2539L709.061 87.4956C710.489 86.7702 712.269 86.3203 714.564 86.3203V79.3203ZM705.892 81.2539L702.8 74.9737C699.141 76.7752 696.111 79.4441 693.704 82.7935L699.388 86.8789L705.072 90.9644C706.259 89.3137 707.565 88.2327 708.984 87.5341L705.892 81.2539ZM699.388 86.8789L693.692 82.8102C691.321 86.1296 689.662 90.0394 688.563 94.3464L695.345 96.0781L702.127 97.8098C702.903 94.7731 703.939 92.5501 705.084 90.9476L699.388 86.8789ZM695.345 96.0781L688.567 94.329C687.449 98.6626 686.939 103.471 686.939 108.676H693.939H700.939C700.939 104.35 701.366 100.759 702.123 97.8273L695.345 96.0781ZM693.939 108.676H686.939V113.48H693.939H700.939V108.676H693.939ZM693.939 113.48H686.939C686.939 118.688 687.449 123.507 688.563 127.868L695.345 126.137L702.127 124.405C701.366 121.422 700.939 117.805 700.939 113.48H693.939ZM695.345 126.137L688.563 127.868C689.667 132.194 691.346 136.125 693.733 139.497L699.447 135.453L705.16 131.409C703.953 129.703 702.898 127.423 702.127 124.405L695.345 126.137ZM699.447 135.453L693.805 139.596C696.23 142.9 699.239 145.55 702.84 147.378L706.009 141.137L709.178 134.895C707.701 134.145 706.335 133.007 705.089 131.31L699.447 135.453ZM706.009 141.137L702.917 147.417C706.549 149.205 710.523 150.012 714.681 150.012V143.012V136.012C712.354 136.012 710.547 135.568 709.101 134.857L706.009 141.137ZM714.681 143.012V150.012C718.864 150.012 722.86 149.211 726.503 147.417L723.411 141.137L720.32 134.857C718.885 135.563 717.061 136.012 714.681 136.012V143.012ZM723.411 141.137L726.58 147.378C730.214 145.533 733.216 142.845 735.583 139.479L729.857 135.453L724.131 131.427C722.982 133.061 721.687 134.162 720.243 134.895L723.411 141.137ZM729.857 135.453L735.612 139.438C737.952 136.057 739.583 132.123 740.641 127.8L733.841 126.137L727.042 124.473C726.302 127.494 725.277 129.771 724.101 131.469L729.857 135.453ZM733.841 126.137L740.624 127.868C741.737 123.507 742.247 118.688 742.247 113.48H735.247H728.247C728.247 117.805 727.82 121.422 727.059 124.405L733.841 126.137Z" fill="white" mask="url(#path-2-outside-1_2722_11217)"/>
<mask id="path-4-outside-2_2722_11217" maskUnits="userSpaceOnUse" x="54.0005" y="28.793" width="136" height="132" fill="black">
<rect fill="white" x="54.0005" y="28.793" width="136" height="132"/>
<path d="M70.1421 36.4883H88.189L122.107 126.964L155.945 36.4883H173.992L129.197 153.793H114.856L70.1421 36.4883ZM61.9243 36.4883H79.085L82.0659 114.799V153.793H61.9243V36.4883ZM165.049 36.4883H182.291V153.793H162.068V114.799L165.049 36.4883Z"/>
</mask>
<path d="M70.1421 36.4883H88.189L122.107 126.964L155.945 36.4883H173.992L129.197 153.793H114.856L70.1421 36.4883ZM61.9243 36.4883H79.085L82.0659 114.799V153.793H61.9243V36.4883ZM165.049 36.4883H182.291V153.793H162.068V114.799L165.049 36.4883Z" fill="#00529F"/>
<path d="M70.1421 36.4883V29.4883C67.8395 29.4883 65.6842 30.6206 64.3778 32.5167C63.0715 34.4128 62.781 36.83 63.6012 38.9816L70.1421 36.4883ZM88.189 36.4883L94.7435 34.0311C93.7191 31.2986 91.1071 29.4883 88.189 29.4883V36.4883ZM122.107 126.964L115.553 129.422C116.578 132.155 119.191 133.965 122.11 133.964C125.029 133.963 127.641 132.151 128.664 129.416L122.107 126.964ZM155.945 36.4883V29.4883C153.025 29.4883 150.412 31.301 149.389 34.0362L155.945 36.4883ZM173.992 36.4883L180.532 38.9855C181.353 36.8337 181.064 34.4155 179.758 32.5184C178.451 30.6214 176.295 29.4883 173.992 29.4883V36.4883ZM129.197 153.793V160.793C132.1 160.793 134.701 159.002 135.737 156.29L129.197 153.793ZM114.856 153.793L108.316 156.286C109.35 159 111.952 160.793 114.856 160.793V153.793ZM61.9243 36.4883V29.4883C58.0583 29.4883 54.9243 32.6223 54.9243 36.4883H61.9243ZM79.085 36.4883L86.0799 36.222C85.9368 32.4623 82.8474 29.4883 79.085 29.4883V36.4883ZM82.0659 114.799H89.0659C89.0659 114.71 89.0642 114.621 89.0609 114.533L82.0659 114.799ZM82.0659 153.793V160.793C85.9319 160.793 89.0659 157.659 89.0659 153.793H82.0659ZM61.9243 153.793H54.9243C54.9243 157.659 58.0583 160.793 61.9243 160.793V153.793ZM165.049 36.4883V29.4883C161.287 29.4883 158.197 32.4623 158.054 36.222L165.049 36.4883ZM182.291 36.4883H189.291C189.291 32.6223 186.157 29.4883 182.291 29.4883V36.4883ZM182.291 153.793V160.793C186.157 160.793 189.291 157.659 189.291 153.793H182.291ZM162.068 153.793H155.068C155.068 157.659 158.202 160.793 162.068 160.793V153.793ZM162.068 114.799L155.073 114.533C155.07 114.621 155.068 114.71 155.068 114.799H162.068ZM70.1421 36.4883V43.4883H88.189V36.4883V29.4883H70.1421V36.4883ZM88.189 36.4883L81.6344 38.9455L115.553 129.422L122.107 126.964L128.662 124.507L94.7435 34.0311L88.189 36.4883ZM122.107 126.964L128.664 129.416L162.502 38.9404L155.945 36.4883L149.389 34.0362L115.551 124.512L122.107 126.964ZM155.945 36.4883V43.4883H173.992V36.4883V29.4883H155.945V36.4883ZM173.992 36.4883L167.453 33.9911L122.658 151.296L129.197 153.793L135.737 156.29L180.532 38.9855L173.992 36.4883ZM129.197 153.793V146.793H114.856V153.793V160.793H129.197V153.793ZM114.856 153.793L121.397 151.3L76.683 33.995L70.1421 36.4883L63.6012 38.9816L108.316 156.286L114.856 153.793ZM61.9243 36.4883V43.4883H79.085V36.4883V29.4883H61.9243V36.4883ZM79.085 36.4883L72.09 36.7545L75.071 115.065L82.0659 114.799L89.0609 114.533L86.0799 36.222L79.085 36.4883ZM82.0659 114.799H75.0659V153.793H82.0659H89.0659V114.799H82.0659ZM82.0659 153.793V146.793H61.9243V153.793V160.793H82.0659V153.793ZM61.9243 153.793H68.9243V36.4883H61.9243H54.9243V153.793H61.9243ZM165.049 36.4883V43.4883H182.291V36.4883V29.4883H165.049V36.4883ZM182.291 36.4883H175.291V153.793H182.291H189.291V36.4883H182.291ZM182.291 153.793V146.793H162.068V153.793V160.793H182.291V153.793ZM162.068 153.793H169.068V114.799H162.068H155.068V153.793H162.068ZM162.068 114.799L169.063 115.065L172.044 36.7545L165.049 36.4883L158.054 36.222L155.073 114.533L162.068 114.799Z" fill="white" mask="url(#path-4-outside-2_2722_11217)"/>
<circle cx="321" cy="112.793" r="44.5" fill="#00529F" stroke="#FDBD10" stroke-width="7"/>
<path d="M321.479 71.9336C321.465 71.1053 320.782 70.4453 319.954 70.4594C319.125 70.4735 318.465 71.1565 318.479 71.9848L319.979 71.9592L321.479 71.9336ZM320.676 112.805L322.176 112.779L321.479 71.9336L319.979 71.9592L318.479 71.9848L319.176 112.83L320.676 112.805Z" fill="white"/>
<line x1="322.5" y1="111.293" x2="360.352" y2="111.293" stroke="white" stroke-width="3" stroke-linecap="round"/>
<path d="M500.634 1.95605L505.266 15.0176L508.532 14.4678L509.016 14.3867L509.495 14.4941L517.497 16.292L518.14 16.4365L519.531 16.2529L533.11 14.4551L534.009 14.3359L534.776 14.8213L548.961 23.8096L549.036 23.8564L549.496 23.6475L565.256 16.457L565.66 16.2725L566.102 16.2383L577.741 15.3398L577.9 15.3271L578.059 15.335L596.002 16.2344L597.29 16.2988L597.984 17.3838L606.107 30.0879L607.027 31.5264L606.021 32.9072L597.898 44.0527L597.511 44.583L596.914 44.8545L592.087 47.0527L598.209 62.8906L593.545 64.6934L587.536 49.1475L578.986 53.1162L578.212 53.4756L577.381 53.2871L565.742 50.6504L565.148 50.5156L564.682 50.123L549.097 36.9697L548.731 37.1514L544.303 39.3389V44.2744H549.375L549.973 45.9209L556.156 62.9385L551.457 64.6455L545.873 49.2744H539.303V41.8096L537.091 42.9033L535.48 43.7002L534.212 42.4258L531.149 39.3477V46.7578H518.626L511.26 64.7393L506.633 62.8447L514.635 43.3096L515.272 41.7578H526.149V34.458L518.446 27.999L510.814 36.5723L510.366 37.0762L509.725 37.2861L492.145 43.0381L489.576 43.8789L488.938 41.252L486.755 32.2637L486.488 31.1631L487.139 30.2373L495.137 18.8506L490.738 13.5098L480.176 19.1396L477.825 14.7275L490.191 8.13574L491.997 7.17383L493.296 8.75293L499.288 16.0254L500.26 15.8613L496.615 5.58398L482.663 7.77832L481.885 2.83887L497.889 0.322266L499.94 0L500.634 1.95605ZM502.833 22.8262C501.889 21.7031 499.753 21.9447 498.062 23.3662C496.371 24.7878 495.766 26.8505 496.71 27.9736C497.655 29.0967 499.79 28.855 501.481 27.4336C503.172 26.012 503.778 23.9493 502.833 22.8262Z" fill="#FDBD10"/>
<path d="M15.1889 128.57L18.7988 132.033L18.0087 133.211L17.9538 133.293L17.934 133.389L17.3726 136.119L17.2942 136.5L17.2621 136.485L17.0309 136.858L14.5757 140.812L14.4805 140.966L14.5055 141.146L15.3072 146.796L15.3442 147.056L15.3077 147.039L15.0666 147.251L10.6363 151.128L10.5692 151.187L10.5268 151.264L8.6214 154.743L8.60637 154.772L8.5944 154.801L6.365 160.484L6.27053 160.725L6.41199 160.941L9.21086 165.232L9.39793 165.518L9.73258 165.449L14.3196 164.491L14.4488 164.463L14.5468 164.377L16.1496 162.971L20.4318 167.316L20.7881 166.966L21.1438 166.614L16.9067 162.314L19.6136 159.977L19.7429 159.866L19.7765 159.699L20.5874 155.725L20.6111 155.606L20.5784 155.488L18.6608 148.747L18.6004 148.537L18.6636 148.565L18.9036 148.368L20.368 147.165L22.4135 148.088L21.6616 149.754L21.9121 149.999L26.3195 154.292L27.0175 153.577L22.8615 149.526L23.7363 147.588L21.2297 146.457L22.3124 145.567L22.59 145.339L22.4621 145.003L21.6358 142.833L24.3837 144.073L26.0868 140.299L32.9208 140.539L32.9563 139.54L25.7865 139.288L25.4512 139.276L23.8835 142.75L21.1552 141.519L20.1643 137.991L20.1016 137.766L20.0732 137.754L20.2389 137.702L24.1419 136.479L24.2706 136.439L24.3615 136.34L28.6005 131.699L28.9653 131.299L28.5386 130.967L26.0595 129.034L25.881 128.896L25.6584 128.938L20.7518 129.872L19.469 127.269L22.9154 124.61L22.3043 123.818L18.5336 126.727L18.21 126.977L18.3911 127.345L19.8955 130.398L19.3645 131.19L16.1808 128.135L18.97 123.877L18.5517 123.603L18.1331 123.329L15.1164 127.935L14.889 128.282L15.1889 128.57ZM21.1045 132.42C20.8886 131.97 21.2619 131.343 21.9386 131.017C22.6152 130.693 23.3384 130.794 23.5542 131.243C23.7699 131.692 23.3967 132.32 22.7201 132.645C22.0435 132.97 21.3204 132.869 21.1045 132.42Z" fill="#FDBD10"/>
<path d="M33.1889 87.5695L36.7988 91.0327L36.0087 92.2114L35.9538 92.2927L35.934 92.3888L35.3726 95.1193L35.2942 95.4996L35.2621 95.4851L35.0309 95.8575L32.5757 99.812L32.4805 99.9661L32.5055 100.146L33.3072 105.796L33.3442 106.056L33.3077 106.039L33.0666 106.251L28.6363 110.128L28.5692 110.187L28.5268 110.264L26.6214 113.743L26.6064 113.772L26.5944 113.801L24.365 119.484L24.2705 119.725L24.412 119.941L27.2109 124.232L27.3979 124.518L27.7326 124.449L32.3196 123.491L32.4488 123.463L32.5468 123.377L34.1496 121.971L38.4318 126.316L38.7881 125.966L39.1438 125.614L34.9067 121.314L37.6136 118.977L37.7429 118.866L37.7765 118.699L38.5874 114.725L38.6111 114.606L38.5784 114.488L36.6608 107.747L36.6004 107.537L36.6636 107.565L36.9036 107.368L38.368 106.165L40.4135 107.088L39.6616 108.754L39.9121 108.999L44.3195 113.292L45.0175 112.577L40.8615 108.526L41.7363 106.588L39.2297 105.457L40.3124 104.567L40.59 104.339L40.4621 104.003L39.6358 101.833L42.3837 103.073L44.0868 99.299L50.9208 99.5394L50.9563 98.5397L43.7865 98.2882L43.4512 98.2762L41.8835 101.75L39.1552 100.519L38.1643 96.9908L38.1016 96.7664L38.0732 96.7536L38.2389 96.702L42.1419 95.4794L42.2706 95.4388L42.3615 95.3395L46.6005 90.6987L46.9653 90.2987L46.5386 89.9669L44.0595 88.034L43.881 87.8955L43.6584 87.9376L38.7518 88.8723L37.469 86.2685L40.9154 83.6099L40.3043 82.8178L36.5336 85.7275L36.21 85.9768L36.3911 86.3446L37.8955 89.3976L37.3645 90.1898L34.1808 87.1354L36.97 82.8774L36.5517 82.603L36.1331 82.3294L33.1164 86.9347L32.889 87.282L33.1889 87.5695ZM39.1045 91.4196C38.8886 90.9701 39.2619 90.3425 39.9386 90.0174C40.6152 89.6925 41.3384 89.7936 41.5542 90.243C41.7699 90.6924 41.3967 91.32 40.7201 91.6451C40.0435 91.9701 39.3204 91.869 39.1045 91.4196Z" fill="#FDBD10"/>
</svg>
