<svg width="208" height="50" viewBox="0 0 208 50" fill="none" xmlns="http://www.w3.org/2000/svg">
<path d="M2.6 39C2.6 34.52 2.6 29.9867 2.6 25.4C2.6 20.8133 2.6 16.28 2.6 11.8C4.25333 11.8 5.92 11.8 7.6 11.8C9.28 11.8 10.9467 11.8 12.6 11.8C13.3733 14.52 14.1333 17.28 14.88 20.08C15.6533 22.8533 16.4133 25.6 17.16 28.32C17.9067 25.6 18.6533 22.8533 19.4 20.08C20.1733 17.28 20.9333 14.52 21.68 11.8C23.3333 11.8 24.9867 11.8 26.64 11.8C28.2933 11.8 29.9333 11.8 31.56 11.8C31.5867 16.28 31.6133 20.8133 31.64 25.4C31.6667 29.9867 31.6933 34.52 31.72 39C30.6 39 29.4667 39 28.32 39C27.2 39 26.08 39 24.96 39C24.96 35.96 24.96 32.8933 24.96 29.8C24.96 26.68 24.96 23.6 24.96 20.56C24.16 23.6 23.3467 26.68 22.52 29.8C21.6933 32.8933 20.88 35.96 20.08 39C19.0933 39 18.08 39 17.04 39C16.0267 39 15.0133 39 14 39C13.2 36.0133 12.4 33 11.6 29.96C10.8 26.8933 10 23.8667 9.2 20.88C9.2 23.8667 9.2 26.8933 9.2 29.96C9.2 33 9.2 36.0133 9.2 39C8.13333 39 7.04 39 5.92 39C4.8 39 3.69333 39 2.6 39ZM36.5359 39C36.5359 35.5867 36.5359 32.1467 36.5359 28.68C36.5359 25.1867 36.5359 21.7333 36.5359 18.32C37.6293 18.32 38.7359 18.32 39.8559 18.32C40.9759 18.32 42.0693 18.32 43.1359 18.32C43.1359 18.5067 43.1359 18.6933 43.1359 18.88C43.1359 19.0667 43.1359 19.2533 43.1359 19.44C43.9626 18.8533 44.8959 18.4133 45.9359 18.12C46.9759 17.8267 48.1093 17.7467 49.3359 17.88C49.3359 18.9467 49.3359 20.0267 49.3359 21.12C49.3359 22.2133 49.3359 23.2933 49.3359 24.36C47.2293 24.0667 45.6693 24.2533 44.6559 24.92C43.6426 25.56 43.1359 26.6133 43.1359 28.08C43.1359 29.8667 43.1359 31.68 43.1359 33.52C43.1359 35.36 43.1359 37.1867 43.1359 39C42.0693 39 40.9759 39 39.8559 39C38.7359 39 37.6293 39 36.5359 39ZM106.908 39C105.868 35.5867 104.814 32.1467 103.748 28.68C102.708 25.1867 101.668 21.7333 100.628 18.32C101.721 18.32 102.828 18.32 103.948 18.32C105.094 18.32 106.214 18.32 107.308 18.32C107.841 20.1867 108.374 22.08 108.908 24C109.468 25.8933 110.001 27.7733 110.508 29.64C110.961 27.7733 111.414 25.8933 111.868 24C112.348 22.08 112.801 20.1867 113.228 18.32C114.161 18.32 115.094 18.32 116.028 18.32C116.988 18.32 117.934 18.32 118.868 18.32C119.321 20.1867 119.774 22.0933 120.228 24.04C120.708 25.96 121.161 27.8667 121.588 29.76C122.121 27.8667 122.654 25.96 123.188 24.04C123.748 22.0933 124.281 20.1867 124.788 18.32C125.881 18.32 126.974 18.32 128.068 18.32C129.188 18.32 130.281 18.32 131.348 18.32C130.308 21.7333 129.254 25.1867 128.188 28.68C127.148 32.1467 126.108 35.5867 125.068 39C124.001 39 122.921 39 121.828 39C120.734 39 119.654 39 118.588 39C118.161 37.3467 117.721 35.68 117.268 34C116.841 32.32 116.414 30.6667 115.988 29.04C115.561 30.6667 115.121 32.32 114.668 34C114.241 35.68 113.814 37.3467 113.388 39C112.321 39 111.241 39 110.148 39C109.054 39 107.974 39 106.908 39ZM137.204 15.96C136.431 15.96 135.724 15.7733 135.084 15.4C134.471 15.0267 133.978 14.5333 133.604 13.92C133.231 13.3067 133.044 12.6267 133.044 11.88C133.044 11.1333 133.231 10.4667 133.604 9.88C133.978 9.26666 134.471 8.77333 135.084 8.4C135.724 8.02666 136.431 7.84 137.204 7.84C137.951 7.84 138.631 8.02666 139.244 8.4C139.884 8.77333 140.391 9.26666 140.764 9.88C141.138 10.4667 141.324 11.1333 141.324 11.88C141.324 12.6267 141.138 13.3067 140.764 13.92C140.391 14.5333 139.884 15.0267 139.244 15.4C138.631 15.7733 137.951 15.96 137.204 15.96ZM133.884 39C133.884 35.5867 133.884 32.1467 133.884 28.68C133.884 25.1867 133.884 21.7333 133.884 18.32C134.978 18.32 136.084 18.32 137.204 18.32C138.324 18.32 139.418 18.32 140.484 18.32C140.484 21.7333 140.484 25.1867 140.484 28.68C140.484 32.1467 140.484 35.5867 140.484 39C139.418 39 138.324 39 137.204 39C136.084 39 134.978 39 133.884 39ZM160.891 32.6C160.891 34.2533 160.424 35.6133 159.491 36.68C158.584 37.72 157.357 38.48 155.811 38.96C154.264 39.44 152.531 39.64 150.611 39.56C148.717 39.5067 146.784 39.2 144.811 38.64C144.811 37.6267 144.811 36.5867 144.811 35.52C144.811 34.4533 144.811 33.4133 144.811 32.4C145.931 32.9067 147.051 33.3067 148.171 33.6C149.291 33.8667 150.304 34.0267 151.211 34.08C152.117 34.1333 152.851 34.0667 153.411 33.88C153.971 33.6667 154.251 33.32 154.251 32.84C154.251 32.4667 154.011 32.1733 153.531 31.96C153.077 31.7467 152.477 31.56 151.731 31.4C150.984 31.2133 150.184 31 149.331 30.76C148.504 30.4933 147.717 30.1333 146.971 29.68C146.224 29.2 145.611 28.5733 145.131 27.8C144.677 27 144.451 25.9733 144.451 24.72C144.451 23.2267 144.877 21.96 145.731 20.92C146.611 19.8533 147.784 19.0533 149.251 18.52C150.717 17.96 152.357 17.68 154.171 17.68C155.984 17.68 157.837 17.9867 159.731 18.6C159.731 19.6133 159.731 20.6533 159.731 21.72C159.731 22.7867 159.731 23.8267 159.731 24.84C158.237 24.12 156.837 23.64 155.531 23.4C154.224 23.16 153.171 23.1333 152.371 23.32C151.571 23.48 151.171 23.84 151.171 24.4C151.171 24.7733 151.397 25.0667 151.851 25.28C152.331 25.4667 152.931 25.64 153.651 25.8C154.397 25.96 155.184 26.1733 156.011 26.44C156.864 26.7067 157.651 27.08 158.371 27.56C159.117 28.0133 159.717 28.6533 160.171 29.48C160.651 30.28 160.891 31.32 160.891 32.6ZM164.275 39C164.275 34.1733 164.275 29.3067 164.275 24.4C164.275 19.4933 164.275 14.6267 164.275 9.8C165.368 9.8 166.475 9.8 167.595 9.8C168.715 9.8 169.808 9.8 170.875 9.8C170.875 12.4133 170.875 15.0667 170.875 17.76C170.875 20.4533 170.875 23.1067 170.875 25.72C171.835 24.4933 172.795 23.2667 173.755 22.04C174.715 20.7867 175.675 19.5467 176.635 18.32C177.915 18.32 179.195 18.32 180.475 18.32C181.782 18.32 183.075 18.32 184.355 18.32C183.102 19.8933 181.822 21.48 180.515 23.08C179.235 24.68 177.968 26.2667 176.715 27.84C178.048 29.68 179.382 31.5467 180.715 33.44C182.075 35.3067 183.408 37.16 184.715 39C183.408 39 182.102 39 180.795 39C179.488 39 178.182 39 176.875 39C175.888 37.5867 174.888 36.16 173.875 34.72C172.862 33.2533 171.862 31.8133 170.875 30.4C170.875 31.8133 170.875 33.2533 170.875 34.72C170.875 36.16 170.875 37.5867 170.875 39C169.808 39 168.715 39 167.595 39C166.475 39 165.368 39 164.275 39ZM195.945 39.64C194.399 39.64 192.959 39.3733 191.625 38.84C190.292 38.28 189.132 37.5067 188.145 36.52C187.159 35.5067 186.385 34.3333 185.825 33C185.292 31.6667 185.025 30.2133 185.025 28.64C185.025 27.0667 185.292 25.6133 185.825 24.28C186.385 22.9467 187.159 21.7867 188.145 20.8C189.132 19.8133 190.292 19.0533 191.625 18.52C192.959 17.96 194.399 17.68 195.945 17.68C197.519 17.68 198.959 17.96 200.265 18.52C201.599 19.0533 202.759 19.8133 203.745 20.8C204.732 21.7867 205.492 22.9467 206.025 24.28C206.585 25.6133 206.865 27.0667 206.865 28.64C206.865 30.2133 206.585 31.6667 206.025 33C205.492 34.3333 204.732 35.5067 203.745 36.52C202.759 37.5067 201.599 38.28 200.265 38.84C198.959 39.3733 197.519 39.64 195.945 39.64ZM195.945 33.68C197.252 33.68 198.292 33.2133 199.065 32.28C199.865 31.32 200.265 30.1067 200.265 28.64C200.265 27.1467 199.865 25.9467 199.065 25.04C198.292 24.1067 197.252 23.64 195.945 23.64C194.639 23.64 193.585 24.1067 192.785 25.04C192.012 25.9467 191.625 27.1467 191.625 28.64C191.625 30.1067 192.012 31.32 192.785 32.28C193.585 33.2133 194.639 33.68 195.945 33.68Z" fill="#00529F"/>
<path d="M75.4998 10.2501V20.5001L82.3332 23.9167M92.5832 20.5001C92.5832 29.9349 84.9347 37.5834 75.4998 37.5834C66.065 37.5834 58.4165 29.9349 58.4165 20.5001C58.4165 11.0652 66.065 3.41675 75.4998 3.41675C84.9347 3.41675 92.5832 11.0652 92.5832 20.5001Z" stroke="#00529F" stroke-width="4" stroke-linecap="round" stroke-linejoin="round"/>
</svg>
